<?xml version="1.0" encoding="UTF-8"?>
<svg width="49px" height="68px" viewBox="0 0 49 68" version="1.1" xmlns="http://www.w3.org/2000/svg" xmlns:xlink="http://www.w3.org/1999/xlink">
    <!-- Generator: Sketch 48.1 (47250) - http://www.bohemiancoding.com/sketch -->
    <title>Group 3</title>
    <desc>Created with Sketch.</desc>
    <defs></defs>
    <g id="Drippers-and-dripperlines" stroke="none" stroke-width="1" fill="none" fill-rule="evenodd" transform="translate(-286.000000, -4352.000000)">
        <g id="5" transform="translate(0.000000, 4271.000000)" fill="#007AFF" fill-rule="nonzero">
            <g id="Icon" transform="translate(286.000000, 81.000000)">
                <g id="Group-3">
                    <g id="Icon">
                        <path d="M30.3240553,45.6035569 C30.3240553,44.9333167 30.7484026,44.336063 31.3826422,44.1136335 C39.7674166,41.1730708 45.4860829,33.2587105 45.4860829,24.2430757 C45.4860829,12.5950568 36.0173823,3.15887025 24.3274332,3.15887025 C12.6374842,3.15887025 3.16878355,12.5950568 3.16878355,24.2430757 C3.16878355,33.2587105 8.88744989,41.1730708 17.2722242,44.1136335 C17.9064639,44.336063 18.3308112,44.9333167 18.3308112,45.6035569 L18.3308112,58.2385365 C18.3308112,61.5399969 21.0138294,64.2136482 24.3274332,64.2136482 C27.641037,64.2136482 30.3240553,61.5399969 30.3240553,58.2385365 L30.3240553,45.6035569 Z M33.4928388,58.2385365 C33.4928388,63.2848502 29.3908497,67.3725184 24.3274332,67.3725184 C19.2640168,67.3725184 15.1620276,63.2848502 15.1620276,58.2385365 L15.1620276,46.6944378 C6.09871421,43.0355093 0,34.2255136 0,24.2430757 C0,10.8502442 10.8876307,0 24.3274332,0 C37.7672358,0 48.6548665,10.8502442 48.6548665,24.2430757 C48.6548665,34.2255136 42.5561522,43.0355093 33.4928388,46.6944378 L33.4928388,58.2385365 Z" id="Stroke-505"></path>
                        <polygon id="Stroke-506" points="26.1687836 49.220457 26.1687836 36 23 36 23 49.220457"></polygon>
                        <polygon id="Stroke-507" points="17 52.1588703 30.2667742 52.1588703 30.2667742 49 17 49"></polygon>
                        <polygon id="Stroke-508" points="17 60.1588703 30.2667742 60.1588703 30.2667742 57 17 57"></polygon>
                        <polygon id="Stroke-509" points="18 31.2340651 23.6857604 36.8999752 25.9260209 34.6659101 20.2402605 29"></polygon>
                        <polygon id="Stroke-510" points="29.6857604 29 24 34.6659101 26.2402605 36.8999752 31.9260209 31.2340651"></polygon>
                    </g>
                </g>
            </g>
        </g>
    </g>
</svg>