<?xml version="1.0" encoding="UTF-8"?>
<svg width="30px" height="36px" viewBox="0 0 30 36" version="1.1" xmlns="http://www.w3.org/2000/svg" xmlns:xlink="http://www.w3.org/1999/xlink">
    <!-- Generator: Sketch 48.1 (47250) - http://www.bohemiancoding.com/sketch -->
    <title>Group 27 Copy 4</title>
    <desc>Created with Sketch.</desc>
    <defs></defs>
    <g id="Drippers-and-dripperlines" stroke="none" stroke-width="1" fill="none" fill-rule="evenodd" transform="translate(-561.000000, -4705.000000)">
        <g id="6" transform="translate(87.000000, 4360.000000)" fill="#007AFF">
            <g id="Group-27-Copy-4" transform="translate(474.000000, 345.000000)">
                <path d="M28.671875,7.52083333 C29.0364602,7.89027963 29.348957,8.3916635 29.609375,9.025 C29.869793,9.6583365 30,10.2388863 30,10.7666667 L30,33.5666667 C30,34.0944471 29.8177102,34.5430537 29.453125,34.9125 C29.0885398,35.2819463 28.6458359,35.4666667 28.125,35.4666667 L1.875,35.4666667 C1.35416406,35.4666667 0.911460156,35.2819463 0.546875,34.9125 C0.182289844,34.5430537 0,34.0944471 0,33.5666667 L0,1.9 C0,1.37221958 0.182289844,0.923612958 0.546875,0.554166667 C0.911460156,0.184720375 1.35416406,0 1.875,0 L19.375,0 C19.8958359,0 20.4687469,0.131943125 21.09375,0.395833333 C21.7187531,0.659723542 22.2135398,0.976387042 22.578125,1.34583333 L28.671875,7.52083333 Z M19.0789474,1.75833333 L19.0789474,11.0666667 L28.2648026,11.0666667 C28.101932,10.5880443 27.9227771,10.2497129 27.7273324,10.0516622 L20.0805965,2.30296986 C19.8851518,2.10491922 19.5512721,1.92337553 19.0789474,1.75833333 Z M28.2127193,33.8 L28.2127193,12.3777778 L19.6244518,12.3777778 C19.073919,12.3777778 18.6059732,12.1825251 18.2206003,11.7920139 C17.8352274,11.4015027 17.6425439,10.9273176 17.6425439,10.3694444 L17.6425439,1.66666667 L1.7872807,1.66666667 L1.7872807,33.8 L28.2127193,33.8 Z M17.4609375,21.196875 C17.8906271,21.5399323 18.4374967,21.909373 19.1015625,22.3052083 C19.8697955,22.2128468 20.6315066,22.1666667 21.3867188,22.1666667 C23.3007908,22.1666667 24.453123,22.4899273 24.84375,23.1364583 C25.0520844,23.4267376 25.0651051,23.7697897 24.8828125,24.165625 C24.8828125,24.1788195 24.8763021,24.1920138 24.8632812,24.2052083 L24.8242188,24.2447917 L24.8242188,24.2645833 C24.7460934,24.7659747 24.2838584,25.0166667 23.4375,25.0166667 C22.8124969,25.0166667 22.0638064,24.8847235 21.1914063,24.6208333 C20.3190061,24.3569431 19.4726604,24.0072938 18.6523438,23.571875 C15.7747252,23.8885433 13.2226674,24.4361072 10.9960937,25.2145833 C9.00389629,28.6715451 7.42839121,30.4 6.26953125,30.4 C6.07421777,30.4 5.89192793,30.3538199 5.72265625,30.2614583 L5.25390625,30.0239583 C5.24088535,30.0107638 5.20182324,29.977778 5.13671875,29.925 C5.00650977,29.7930549 4.96744766,29.5555573 5.01953125,29.2125 C5.13671934,28.6847196 5.50129902,28.0810798 6.11328125,27.4015625 C6.72526348,26.7220452 7.58462988,26.0854196 8.69140625,25.4916667 C8.87369883,25.3729161 9.02343691,25.412499 9.140625,25.6104167 C9.1666668,25.6368057 9.1796875,25.6631943 9.1796875,25.6895833 C9.85677422,24.5680499 10.5533818,23.2684102 11.2695312,21.790625 C12.1549523,19.9961716 12.8320289,18.2677166 13.3007812,16.6052083 C12.9882797,15.5232585 12.789714,14.4710121 12.7050781,13.4484375 C12.6204423,12.4258629 12.6627596,11.5847255 12.8320312,10.925 C12.9752611,10.3972196 13.2486959,10.1333333 13.6523437,10.1333333 L14.0820313,10.1333333 C14.3815119,10.1333333 14.6093742,10.2322907 14.765625,10.4302083 C15.0000012,10.7072931 15.0585943,11.1558997 14.9414062,11.7760417 C14.9153645,11.8552087 14.889323,11.907986 14.8632813,11.934375 C14.8763021,11.9739585 14.8828125,12.0267358 14.8828125,12.0927083 L14.8828125,12.6864583 C14.8567707,14.3093831 14.7656258,15.5760371 14.609375,16.4864583 C15.3255244,18.650358 16.2760357,20.2204812 17.4609375,21.196875 Z M6.2109375,29.33125 C6.88802422,29.0145818 7.77994238,27.9722311 8.88671875,26.2041667 C8.22265293,26.7319471 7.65299717,27.2861082 7.17773438,27.8666667 C6.70247158,28.4472251 6.38020918,28.9354147 6.2109375,29.33125 Z M13.984375,11.1229167 C13.7890615,11.6770861 13.7760408,12.5479107 13.9453125,13.7354167 C13.9583334,13.6430551 14.0039059,13.3527802 14.0820313,12.8645833 C14.0820313,12.8249998 14.1276037,12.5413221 14.21875,12.0135417 C14.2317709,11.9607636 14.2578123,11.9079864 14.296875,11.8552083 C14.2838541,11.8420138 14.2773437,11.8288195 14.2773437,11.815625 C14.2643229,11.789236 14.2578125,11.7694445 14.2578125,11.75625 C14.2447916,11.4659708 14.160157,11.2284731 14.0039062,11.04375 C14.0039062,11.0569445 13.9973959,11.0701388 13.984375,11.0833333 L13.984375,11.1229167 Z M11.5625,24.2052083 C13.3203213,23.4927048 15.1692611,22.9583351 17.109375,22.6020833 C17.0833332,22.5888888 16.9986986,22.5262158 16.8554687,22.4140625 C16.7122389,22.3019092 16.6080732,22.2128476 16.5429688,22.146875 C15.5533805,21.2628428 14.7265658,20.1017433 14.0625,18.6635417 C13.7109357,19.7982696 13.1705766,21.0979093 12.4414063,22.5625 C12.0507793,23.3013926 11.7578135,23.8489566 11.5625,24.2052083 Z M24.1796875,23.8885417 C23.8671859,23.5718734 22.9557367,23.4135417 21.4453125,23.4135417 C22.4349008,23.782988 23.2421844,23.9677083 23.8671875,23.9677083 C24.0494801,23.9677083 24.1666664,23.9611112 24.21875,23.9479167 C24.21875,23.9347222 24.2057293,23.9149307 24.1796875,23.8885417 Z" id="file-pdf-o---FontAwesome"></path>
            </g>
        </g>
    </g>
</svg>