<?xml version="1.0" encoding="UTF-8"?>
<svg width="42px" height="48px" viewBox="0 0 42 48" version="1.1" xmlns="http://www.w3.org/2000/svg" xmlns:xlink="http://www.w3.org/1999/xlink">
    <!-- Generator: Sketch 53.2 (72643) - https://sketchapp.com -->
    <title>Ico / download</title>
    <desc>Created with Sketch.</desc>
    <g id="Components" stroke="none" stroke-width="1" fill="none" fill-rule="evenodd">
        <g id="MO-/-Download-Alt" transform="translate(-332.000000, -88.000000)" fill="#2ECC71">
            <g id="Group-14" transform="translate(330.000000, 88.000000)">
                <g id="Group">
                    <g id="AT-/-Ico-/-Download">
                        <path d="M41.7214764,10.1785838 C42.712549,11.1696564 43.5429072,13.1518017 43.5429072,14.5714463 L43.5429072,45.4286267 C43.5429072,46.8482713 42.3911201,48.0000584 40.9714755,48.0000584 L4.9714317,48.0000584 C3.55178712,48.0000584 2.4,46.8482713 2.4,45.4286267 L2.4,2.5714317 C2.4,1.15178712 3.55178712,0 4.9714317,0 L28.9714609,0 C30.3911055,0 32.3732508,0.830358153 33.3643234,1.82143079 L41.7214764,10.1785838 Z M29.8286048,3.64286157 L29.8286048,13.7143024 L39.9000456,13.7143024 C39.7393311,13.2589447 39.4982594,12.803587 39.3107592,12.6160868 L30.9268204,4.23214801 C30.7393202,4.04464778 30.2839625,3.80357606 29.8286048,3.64286157 Z M40.1143316,44.5714828 L40.1143316,17.142878 L28.9714609,17.142878 C27.5518163,17.142878 26.4000292,15.9910909 26.4000292,14.5714463 L26.4000292,3.4285756 L5.8285756,3.4285756 L5.8285756,44.5714828 L40.1143316,44.5714828 Z M26.3464577,28.6875349 C27.0161014,29.2232498 27.7661023,29.7053933 28.5964604,30.1875367 C29.7214618,30.053608 30.7661059,30.0000365 31.7303928,30.0000365 C33.5250379,30.0000365 35.8018264,30.2143225 36.47147,31.3125381 C36.6589703,31.5803956 36.8196847,32.062539 36.5250415,32.7053969 C36.4982558,32.7321827 36.47147,32.7857542 36.4446843,32.8125399 L36.4446843,32.8393257 C36.364327,33.3214691 35.9625408,33.857184 34.5428962,33.857184 C32.8286084,33.857184 30.230391,33.0803974 27.9803883,31.9018245 C24.2571694,32.3036107 20.3464504,33.1339689 17.4803755,34.1250415 C14.7214436,38.839333 12.6053696,41.1429072 10.9982247,41.1429072 C10.7303673,41.1429072 10.4892956,41.0893357 10.2482238,40.955407 L9.60536591,40.633978 C9.52500867,40.6071923 9.49822292,40.5536208 9.44465143,40.5000493 C9.31072269,40.3661205 9.20357971,40.0714773 9.28393695,39.5357624 C9.55179442,38.303618 10.9982247,36.2411155 14.3196574,34.500042 C14.5339433,34.3661132 14.8018008,34.4464705 14.9357295,34.6607565 C14.9625153,34.6875422 14.989301,34.7411137 14.989301,34.7678994 C15.8196592,33.4018264 16.7839461,31.6607528 17.8553759,29.4911073 C19.0607346,27.0803901 19.9982357,24.7232444 20.6410936,22.4732416 C19.7839497,19.5535952 19.5160923,16.5535916 19.9982357,14.7857323 C20.1857359,14.1160886 20.5875221,13.7143024 21.1232371,13.7143024 L21.7125235,13.7143024 C22.1143097,13.7143024 22.4357387,13.8482311 22.6500246,14.1160886 C22.9714536,14.4910891 23.0518108,15.0803755 22.8910964,15.9375194 C22.8643106,16.0178766 22.8375249,16.0982339 22.7839534,16.1518054 C22.8107391,16.2321626 22.8107391,16.2857341 22.8107391,16.3660913 L22.8107391,17.1696637 C22.7839534,18.8571658 22.7571676,20.4643106 22.4357387,22.3125271 C23.3732398,25.1250306 24.7660986,27.4018191 26.3464577,28.6875349 Z M10.9178675,39.6964769 C11.7214399,39.3214764 12.873227,38.1696893 14.5875148,35.4643289 C12.5785838,37.0179022 11.3196537,38.7857615 10.9178675,39.6964769 Z M21.5785948,15.0535897 C21.3107373,15.8035907 21.3107373,17.0893065 21.5250233,18.5893083 C21.6053805,18.1607364 21.658952,17.7589502 21.7125235,17.4107355 C21.766095,16.9553778 21.8464522,16.5803773 21.9000237,16.2589484 C21.9268095,16.1785911 21.9535952,16.1250196 22.0071667,16.0446624 C21.980381,16.0178766 21.980381,15.9643051 21.9535952,15.9107336 C21.9268095,15.4285902 21.766095,15.133947 21.6053805,14.9464468 C21.6053805,15.0000182 21.5785948,15.026804 21.5785948,15.0535897 Z M18.2571621,32.7589684 C20.6143079,31.8214673 23.2393111,31.0714664 25.8643143,30.5893229 C25.5964568,30.375037 25.3285993,30.1875367 25.0875276,29.9732508 C23.775026,28.8214636 22.5964531,27.2143188 21.6857378,25.2589593 C21.1768086,26.8928899 20.4268076,28.6339634 19.4625208,30.5357514 C19.0607346,31.2857523 18.6589484,32.0357533 18.2571621,32.7589684 Z M35.5607546,32.3303965 C35.4268259,32.1964677 34.7303965,31.6875386 31.8107501,31.6875386 C33.1232517,32.169682 34.3286103,32.4375395 35.1321827,32.4375395 C35.3732544,32.4375395 35.5071831,32.4375395 35.6143261,32.4107537 C35.6143261,32.383968 35.5875404,32.3571822 35.5607546,32.3303965 Z"></path>
                    </g>
                </g>
            </g>
        </g>
    </g>
</svg>