<?xml version="1.0" encoding="utf-8"?>
<!-- Generator: Adobe Illustrator 23.0.2, SVG Export Plug-In . SVG Version: 6.00 Build 0)  -->
<svg version="1.1" id="Layer_1" xmlns="http://www.w3.org/2000/svg" xmlns:xlink="http://www.w3.org/1999/xlink" x="0px" y="0px"
	 viewBox="0 0 27 32" style="enable-background:new 0 0 27 32;" xml:space="preserve">
<style type="text/css">
	.st0{fill:#154A7C;}
</style>
<g>
	<circle class="st0" cx="13.5" cy="12.8" r="3.8"/>
	<path class="st0" d="M13.5,0.3C6.6,0.3,1,5.9,1,12.8c0,3.1,1.1,6,3,8.2c2.3,2.7,9.5,10.8,9.5,10.8s7.4-8.2,9.3-10.5
		c1.9-2.3,3.2-5.2,3.2-8.4C26,5.9,20.4,0.3,13.5,0.3z M13.5,19.2c-3.5,0-6.4-2.9-6.4-6.4c0-3.5,2.9-6.4,6.4-6.4
		c3.5,0,6.4,2.9,6.4,6.4C19.9,16.3,17,19.2,13.5,19.2z"/>
</g>
</svg>
