<?xml version="1.0" encoding="utf-8"?>
<!-- Generator: Adobe Illustrator 23.0.2, SVG Export Plug-In . SVG Version: 6.00 Build 0)  -->
<svg version="1.1" id="Layer_1" xmlns="http://www.w3.org/2000/svg" xmlns:xlink="http://www.w3.org/1999/xlink" x="0px" y="0px"
	 viewBox="0 0 90 90" style="enable-background:new 0 0 90 90;" xml:space="preserve">
<style type="text/css">
	.st0{fill:none;stroke:#565656;stroke-width:3;stroke-miterlimit:10;}
	.st1{fill:#2E7AFF;}
	.st2{fill:none;stroke:#565656;stroke-width:2.5;stroke-linecap:round;stroke-linejoin:round;stroke-miterlimit:10;}
	.st3{fill:none;stroke:#565656;stroke-width:2.5;stroke-miterlimit:10;}
	.st4{fill:none;stroke:#565656;stroke-width:2;stroke-linecap:square;stroke-linejoin:round;stroke-miterlimit:10;}
	.st5{fill:#565656;stroke:#565656;stroke-miterlimit:10;}
</style>
<g>
	<g>
		<g>
			<path class="st2" d="M6.4,20.5H69v48.9c0,0,0-9.7,7.9-9.7c10.2,0,7.8,9.7,7.8,9.7S83.4,80,73.7,80S6.4,80,6.4,80V20.5z"/>
			<path class="st3" d="M84.9,68.3c0-48.7,0-45.8,0-49.5c0-3.2-2.5-8.1-7.9-8.1c-3.1,0-8,2.7-8.1,9.5"/>
			<path class="st2" d="M69,69.4c0,0,0-9.7,7.9-9.7c7.8,0,7.5,9.7,7.5,9.7"/>
		</g>
		<g>
			<path class="st2" d="M45.9,39.5L24.6,60.8c-1.5,1.5-4.1,1.5-5.6,0l-3.9-3.9c-1.5-1.5-1.5-4.1,0-5.6L36.3,30
				c1.5-1.5,4.1-1.5,5.6,0l3.9,3.9C47.4,35.5,47.4,38,45.9,39.5z"/>
			<line class="st4" x1="16.3" y1="50" x2="21.7" y2="55.4"/>
			<line class="st4" x1="21.1" y1="45.2" x2="23.9" y2="48.1"/>
			<line class="st4" x1="26.1" y1="40.2" x2="31.5" y2="45.6"/>
			<line class="st4" x1="35.4" y1="30.9" x2="40.8" y2="36.4"/>
			<line class="st4" x1="30.7" y1="35.6" x2="33.5" y2="38.5"/>
		</g>
	</g>
	<path class="st1" d="M29.6,70.1L29.6,70.1c-0.3-0.3-1.3-1.4-1.1-1.6l31-33.6c0.2-0.2,0.6-0.1,1,0.2l0,0c0.3,0.3,0.5,0.7,0.3,0.9
		L31.3,71C31.2,71.2,29.9,70.4,29.6,70.1z"/>
</g>
</svg>
