<?xml version="1.0" encoding="utf-8"?>
<!-- Generator: Adobe Illustrator 23.0.2, SVG Export Plug-In . SVG Version: 6.00 Build 0)  -->
<svg version="1.1" id="Layer_1" xmlns="http://www.w3.org/2000/svg" xmlns:xlink="http://www.w3.org/1999/xlink" x="0px" y="0px"
	 viewBox="0 0 90 90" style="enable-background:new 0 0 90 90;" xml:space="preserve">
<style type="text/css">
	.st0{fill:none;stroke:#565656;stroke-width:3;stroke-miterlimit:10;}
	.st1{fill:#2E7AFF;}
	.st2{fill:none;stroke:#565656;stroke-width:2.5;stroke-linecap:round;stroke-linejoin:round;stroke-miterlimit:10;}
	.st3{fill:none;stroke:#565656;stroke-width:2.5;stroke-miterlimit:10;}
	.st4{fill:none;stroke:#565656;stroke-width:2;stroke-linecap:square;stroke-linejoin:round;stroke-miterlimit:10;}
	.st5{fill:#565656;stroke:#565656;stroke-miterlimit:10;}
</style>
<g>
	<g>
		<g>
			<g>
				<path class="st5" d="M56,54c-1,0-1.9-0.7-2.2-1.7l-0.7-3.1c-0.1-0.4-0.5-0.7-0.9-0.8c0,0-0.1,0-0.1,0l-3-0.7c0,0-0.1,0-0.1,0
					c-0.3-0.1-1,0-1.2,0.3l-2.1,2.3c-0.4,0.5-1,0.7-1.7,0.7c-0.5,0-0.9-0.1-1.3-0.4l-2-1.4c-0.9-0.7-1.2-2-0.6-3l1.6-2.7
					c0.2-0.3,0.2-1-0.1-1.3c0,0,0-0.1-0.1-0.1L40,39.6c0,0,0-0.1-0.1-0.1c-0.1-0.3-0.6-0.6-0.9-0.6l-3.1,0.3
					c-1.2,0.1-2.2-0.7-2.4-1.9l-0.4-2.4c-0.2-1.1,0.6-2.2,1.7-2.5l3.1-0.7c0.4-0.1,0.8-0.5,0.8-0.9c0,0,0-0.1,0-0.1l0.7-2.6
					c0,0,0-0.1,0-0.1c0.1-0.4,0-0.9-0.3-1.2l-2.3-2c-0.8-0.8-1-2.1-0.3-3l1.4-2c0.4-0.6,1.1-0.9,1.9-0.9c0.4,0,0.8,0.1,1.1,0.3
					l2.7,1.5c0.3,0.2,1,0.1,1.3-0.1c0,0,0.1,0,0.1-0.1l2.2-1.3c0,0,0.1,0,0.1-0.1c0.3-0.1,0.6-0.6,0.6-1L47.8,15
					c-0.1-1.1,0.7-2.2,1.9-2.4l2.4-0.4c1.1-0.2,2.3,0.6,2.5,1.7l0.7,3c0.1,0.4,0.5,0.7,0.9,0.8c0,0,0.1,0,0.1,0l2.6,0.6
					c0,0,0.1,0,0.1,0c0.4,0.1,1,0,1.3-0.3l2.1-2.4c0.4-0.5,1-0.7,1.7-0.7c0.5,0,0.9,0.1,1.3,0.4l2,1.4c0.9,0.7,1.2,2,0.6,3l-1.6,2.7
					c-0.2,0.3-0.1,0.9,0.1,1.2c0,0,0,0.1,0.1,0.1l1.4,2.2c0,0,0,0.1,0.1,0.1c0.1,0.3,0.6,0.6,1,0.6l0.1,0l3-0.2
					c1.1-0.1,2.2,0.7,2.4,1.9l0.4,2.4c0.2,1.1-0.6,2.2-1.7,2.5l-2.8,0.7c-0.4,0.1-0.7,0.5-0.7,0.9c0,0,0,0.1,0,0.1l-0.6,3
					c0,0,0,0.1,0,0.1c-0.1,0.4,0,1,0.3,1.2l2.2,2c0.9,0.8,1,2.1,0.3,3l-1.4,2c-0.4,0.6-1.1,0.9-1.9,0.9l0,0c-0.4,0-0.8-0.1-1.1-0.3
					l-2.6-1.5c-0.3-0.2-1-0.1-1.3,0.1c0,0-0.1,0-0.1,0.1L61.1,47c0,0-0.1,0-0.1,0.1c-0.3,0.1-0.6,0.6-0.6,1l0.3,3.2
					c0.1,1.1-0.7,2.2-1.9,2.4L56.3,54C56.2,54,56.1,54,56,54z M52.4,46.9c1,0.1,2,1,2.3,2l0.7,3.1c0.1,0.3,0.4,0.5,0.7,0.5l2.4-0.4
					c0.3,0,0.5-0.3,0.5-0.6l-0.3-3.2c-0.1-1,0.6-2.2,1.5-2.6l2.4-1.4c0.8-0.6,2.1-0.7,3-0.2l2.6,1.5c0.3,0.1,0.7,0.1,0.9-0.2l1.4-2
					c0.2-0.2,0.1-0.7-0.1-0.9l-2.2-2c-0.8-0.7-1.1-1.9-0.8-2.9l0.6-2.9c0.1-1,0.9-2,2-2.3l2.8-0.7c0.3-0.1,0.5-0.4,0.5-0.7L73,28.6
					c0-0.3-0.3-0.5-0.6-0.5l-3,0.2c-0.1,0-0.1,0-0.2,0c-1,0-2-0.6-2.4-1.5l-1.3-2.1c-0.7-0.8-0.8-2.1-0.2-3l1.6-2.7
					c0.2-0.3,0.1-0.7-0.2-0.8l-2-1.4c-0.2-0.2-0.7-0.1-0.9,0.1l-2.1,2.4C61,19.7,60.2,20,59.4,20c-0.3,0-0.6,0-0.8-0.1l-2.5-0.6
					c-1-0.1-2-1-2.3-2l-0.7-3c-0.1-0.3-0.4-0.5-0.7-0.5l-2.4,0.4c-0.3,0-0.5,0.3-0.5,0.6l0.3,3.1c0.1,1-0.6,2.2-1.6,2.6L46,21.8
					c-0.8,0.6-2.2,0.7-3,0.2l-2.7-1.5c-0.3-0.1-0.7-0.1-0.9,0.2l-1.4,2c-0.2,0.2-0.1,0.7,0.1,0.9l2.3,2c0.8,0.7,1.1,2,0.7,2.9
					L40.3,31c-0.1,1-1,2-2,2.2l-3.1,0.7c-0.3,0.1-0.5,0.4-0.5,0.7l0.4,2.4c0,0.3,0.3,0.5,0.6,0.5l3.1-0.3c1-0.1,2.2,0.6,2.6,1.6
					l1.4,2.4c0.6,0.8,0.7,2.1,0.2,3L41.4,47c-0.2,0.3-0.1,0.7,0.2,0.8l2,1.4c0.2,0.2,0.7,0.1,0.9-0.1l2.1-2.3c0.7-0.7,2-1.1,2.9-0.7
					L52.4,46.9z M54.2,42.2c-4.5,0-8.3-3.2-9.1-7.7c-0.4-2.4,0.2-4.8,1.6-6.8c1.4-2,3.6-3.3,6-3.7c0.5-0.1,1-0.1,1.5-0.1
					c4.5,0,8.3,3.2,9.1,7.7c0.4,2.4-0.2,4.8-1.6,6.8c-1.4,2-3.6,3.3-6,3.7C55.2,42.2,54.7,42.2,54.2,42.2z M54.2,25.6
					c-0.4,0-0.8,0-1.2,0.1c-2,0.3-3.8,1.4-5,3c-1.2,1.6-1.6,3.6-1.3,5.6c0.6,3.7,3.7,6.3,7.5,6.3c0.4,0,0.8,0,1.2-0.1
					c2-0.3,3.8-1.4,5-3c1.2-1.6,1.6-3.6,1.3-5.6C61.1,28.2,58,25.6,54.2,25.6z"/>
			</g>
		</g>
		<g>
			<path class="st5" d="M53.6,86.4c-7.2,0-18.1-2.2-26.2-7.1c-4.7-2.9-7-3.7-9.8-3.5c-0.5,0.1-3.7,1.3-6.6,2.4c-0.4,0.2-0.9,0-1-0.5
				c-0.2-0.4,0-0.9,0.5-1c1.9-0.7,6.3-2.4,7.1-2.5c3.1-0.2,5.6,0.6,10.7,3.7c10,6.1,25.1,8,30.4,6.3c4.3-1.4,18.4-15.5,23.6-20.9
				c0.3-0.4,2.1-3.5,0.7-5c-2-2.1-4.3-0.2-4.5,0l-9.3,8.3c-0.3,0.3-0.8,0.3-1.1-0.1c-0.3-0.3-0.3-0.8,0.1-1.1l9.3-8.3
				c1.2-1.1,4.2-2.6,6.8,0c2.4,2.5-0.4,6.9-0.6,7.1c0,0-0.1,0.1-0.1,0.1C82.7,65.1,64.7,84,59.1,85.7C57.8,86.2,55.9,86.4,53.6,86.4
				z"/>
			<path class="st5" d="M49.1,76c-2.5,0-4.5-0.1-5-0.3c-1.1-0.3-3.8-2.1-8-5.2c-0.4-0.3-0.4-0.8-0.2-1.1c0.3-0.4,0.8-0.4,1.1-0.2
				c5.5,4.1,7.1,4.8,7.5,4.9c1.4,0.4,17.5,0.5,21.3-2.6c0.6-0.5,0.7-0.9,0.7-1.2c-0.3-2.9-5.6-2.9-9.9-2.9c-2.1,0-4.1,0-5.5-0.3
				c-4.1-1-7.9-3.5-13.7-7.4l-0.4-0.3c-5.8-3.8-13.6-3.2-15.9-2.3c-2.6,1-10.1,2.7-10.4,2.8c-0.4,0.1-0.9-0.2-1-0.6
				c-0.1-0.4,0.2-0.9,0.6-1c0.1,0,7.7-1.7,10.1-2.7c2.9-1.2,11.2-1.7,17.3,2.4l0.4,0.3c5.6,3.7,9.3,6.2,13.2,7.1
				c1.2,0.3,3.1,0.3,5.1,0.3c5,0,11.1,0,11.5,4.4c0.1,0.7-0.1,1.7-1.3,2.6C63.8,75.3,54.9,76,49.1,76z"/>
		</g>
	</g>
	<path class="st1" d="M15.8,46.9L15.8,46.9c-0.4-0.2-1.6-1.1-1.5-1.4l23-40.9c0.1-0.3,0.6-0.3,1-0.1v0c0.4,0.2,0.6,0.6,0.5,0.9
		l-21.1,42C17.6,47.6,16.2,47.1,15.8,46.9z"/>
</g>
</svg>
