<?xml version="1.0" encoding="utf-8"?>
<!-- Generator: Adobe Illustrator 23.0.2, SVG Export Plug-In . SVG Version: 6.00 Build 0)  -->
<svg version="1.1" id="Layer_1" xmlns="http://www.w3.org/2000/svg" xmlns:xlink="http://www.w3.org/1999/xlink" x="0px" y="0px"
	 viewBox="0 0 90 90" style="enable-background:new 0 0 90 90;" xml:space="preserve">
<style type="text/css">
	.st0{fill:none;stroke:#565656;stroke-width:3;stroke-miterlimit:10;}
	.st1{fill:#2E7AFF;}
	.st2{fill:none;stroke:#565656;stroke-width:2.5;stroke-linecap:round;stroke-linejoin:round;stroke-miterlimit:10;}
	.st3{fill:none;stroke:#565656;stroke-width:2.5;stroke-miterlimit:10;}
	.st4{fill:none;stroke:#565656;stroke-width:2;stroke-linecap:square;stroke-linejoin:round;stroke-miterlimit:10;}
	.st5{fill:#565656;stroke:#565656;stroke-miterlimit:10;}
</style>
<g>
	<g>
		<g>
			<path class="st2" d="M30.1,53.8c0-6.2-5-11.3-11.3-11.3s-11.3,5-11.3,11.3c0,0-1.1,6.2,11.3,26.7C18.8,80.5,30.1,62,30.1,53.8z"
				/>
			<circle class="st2" cx="18.8" cy="54.4" r="6.2"/>
		</g>
		<g>
			<g>
				<path class="st2" d="M82.5,21.5c0-6.2-5-11.3-11.3-11.3S60,15.3,60,21.5c0,0-1.1,6.2,11.3,26.7C71.3,48.2,82.5,29.6,82.5,21.5z"
					/>
				<circle class="st2" cx="71.2" cy="22" r="6.2"/>
			</g>
		</g>
	</g>
	<path class="st1" d="M28.2,78.9L28.2,78.9c-0.3-0.4-1-1.7-0.8-1.9L65,49c0.2-0.2,0.6,0,0.9,0.3l0,0c0.3,0.4,0.3,0.8,0.1,1
		L29.8,80.1C29.6,80.3,28.5,79.3,28.2,78.9z"/>
</g>
</svg>
