<?xml version="1.0" encoding="utf-8"?>
<!-- Generator: Adobe Illustrator 23.0.2, SVG Export Plug-In . SVG Version: 6.00 Build 0)  -->
<svg version="1.1" id="Layer_1" xmlns="http://www.w3.org/2000/svg" xmlns:xlink="http://www.w3.org/1999/xlink" x="0px" y="0px"
	 viewBox="0 0 90 90" style="enable-background:new 0 0 90 90;" xml:space="preserve">
<style type="text/css">
	.st0{fill:none;stroke:#565656;stroke-width:3;stroke-miterlimit:10;}
	.st1{fill:#2E7AFF;}
	.st2{fill:none;stroke:#565656;stroke-width:2.5;stroke-linecap:round;stroke-linejoin:round;stroke-miterlimit:10;}
	.st3{fill:none;stroke:#565656;stroke-width:2.5;stroke-miterlimit:10;}
	.st4{fill:none;stroke:#565656;stroke-width:2;stroke-linecap:square;stroke-linejoin:round;stroke-miterlimit:10;}
	.st5{fill:#565656;stroke:#565656;stroke-miterlimit:10;}
</style>
<g>
	<g>
		<path class="st0" d="M45.6,85.8c-8.8,0-11.5-4.5-11.5-9.2c0-9.4,0.1-15.8,0.1-15.8"/>
		<path class="st0" d="M55.5,61.4c0,0,0.1,5.6,0.1,13.4c0,3.5-0.8,11-10,11"/>
		<path class="st0" d="M55.5,61.6l0-0.5c11.2-4,19.2-14.4,19.2-27c0-16.1-13-29.1-29.1-29.1S16.5,17.9,16.5,34
			c0,12.1,7.3,22.4,17.8,26.8l0,0.2"/>
		<line class="st0" x1="34.5" y1="67.3" x2="55.9" y2="67.3"/>
		<line class="st0" x1="34.2" y1="75.9" x2="55.6" y2="75.9"/>
	</g>
	<path class="st1" d="M45,60.4L45,60.4c-0.5,0-2-0.2-2-0.5l1.1-46.9c0-0.3,0.4-0.5,0.8-0.5h0c0.5,0,0.8,0.2,0.8,0.5L47,59.8
		C47,60.1,45.5,60.4,45,60.4z"/>
</g>
</svg>
